<svg xmlns="http://www.w3.org/2000/svg" xmlns:xlink="http://www.w3.org/1999/xlink" width="840" height="407.36"><rect width="840" height="407.36" rx="5" ry="5" class="a"/><svg y="0%" x="0%"><circle cx="20" cy="20" r="6" fill="#ff5f58"/><circle cx="40" cy="20" r="6" fill="#ffbd2e"/><circle cx="60" cy="20" r="6" fill="#18c132"/></svg><svg height="347.36" viewBox="0 0 80 34.736" width="800" x="15" xmlns="http://www.w3.org/2000/svg" xmlns:xlink="http://www.w3.org/1999/xlink" y="50"><style>.a{fill:#141414}.f{fill:#7c7c7c}.g{fill:#b5dcff}.k{fill:#ffc;font-weight:700;text-decoration:underline}.m{fill:#ceffac}.n{fill:#ff9cfe}.o{fill:#ffc}.p{fill:#fff}.q{fill:#ffb6b0}</style><g font-size="1.67" font-family="Monaco,Consolas,Menlo,'Bitstream Vera Sans Mono','Powerline Symbols',monospace"><defs><symbol id="1"><text x="27.054" y="1.67" class="f">+</text><text x="28.056" y="1.67" class="g">tasklite</text></symbol><symbol id="a"><path fill="transparent" d="M0 0h80v16H0z"/></symbol></defs><path class="a" d="M0 0h80v34.736H0z"/><svg width="80"><svg><use xlink:href="#a"/><text y="1.67" fill="#ceffac" font-weight="700" text-decoration="underline">Id</text><text x="5.01" y="1.67" fill="#ff9cfe" font-weight="700" text-decoration="underline">Prio</text><text x="11.022" y="1.67" class="k">Opened</text><text x="18.036" y="1.67" class="k">UTC</text><text x="23.046" y="1.67" fill="#fff" font-weight="700" text-decoration="underline">Body</text><text y="3.841" class="m">ktm</text><text x="6.012" y="3.841" class="n">8</text><text x="11.022" y="3.841" class="o">2018-07-04</text><text x="23.046" y="3.841" class="p">Publish</text><text x="31.062" y="3.841" class="p">the</text><text x="35.07" y="3.841" class="p">TaskLite</text><text x="44.088" y="3.841" class="p">git</text><text x="48.096" y="3.841" class="p">repository</text><text x="60.12" y="3.841" class="q">2018-08-01</text><text x="71.142" y="3.841" class="q">00:00:00</text><use xlink:href="#1" y="4.342"/><text y="8.183" class="m">ry1</text><text x="6.012" y="8.183" class="n">8</text><text x="11.022" y="8.183" class="o">2018-07-04</text><text x="23.046" y="8.183" class="p">Post</text><text x="28.056" y="8.183" class="p">link</text><text x="33.066" y="8.183" class="p">to</text><text x="36.072" y="8.183" class="p">TaskLite</text><text x="45.09" y="8.183" class="p">on</text><text x="48.096" y="8.183" class="p">HackerNews</text><text x="60.12" y="8.183" class="q">2018-08-01</text><text x="71.142" y="8.183" class="q">00:00:00</text><use xlink:href="#1" y="8.684"/><text y="12.525" class="m">yyg</text><text x="6.012" y="12.525" class="n">2</text><text x="11.022" y="12.525" class="o">2018-07-04</text><text x="23.046" y="12.525" class="p">Add</text><text x="27.054" y="12.525" class="p">a</text><text x="29.058" y="12.525" class="p">burndown</text><text x="38.076" y="12.525" class="p">chart</text><text x="44.088" y="12.525" class="p">view</text><text x="54.108" y="12.525" class="f">+</text><text x="55.11" y="12.525" class="g">tasklite</text><text y="14.696" class="m">tr7</text><text x="6.012" y="14.696" class="n">2</text><text x="11.022" y="14.696" class="o">2018-07-04</text><text x="23.046" y="14.696" class="p">Add</text><text x="27.054" y="14.696" class="p">multi</text><text x="33.066" y="14.696" class="p">user</text><text x="38.076" y="14.696" class="p">support</text><text x="51.102" y="14.696" class="f">+</text><text x="52.104" y="14.696" class="g">tasklite</text><text y="16.867" class="m">sze</text><text x="6.012" y="16.867" class="n">2</text><text x="11.022" y="16.867" class="o">2018-07-04</text><text x="23.046" y="16.867" class="p">Add</text><text x="27.054" y="16.867" class="p">a</text><text x="29.058" y="16.867" class="p">statistics</text><text x="40.08" y="16.867" class="p">view</text><text x="50.1" y="16.867" class="f">+</text><text x="51.102" y="16.867" class="g">tasklite</text><text y="19.038" class="m">z7q</text><text x="6.012" y="19.038" class="n">2</text><text x="11.022" y="19.038" class="o">2018-07-04</text><text x="23.046" y="19.038" class="p">Add</text><text x="27.054" y="19.038" class="p">a</text><text x="29.058" y="19.038" class="p">calendar</text><text x="38.076" y="19.038" class="p">view</text><text x="48.096" y="19.038" class="f">+</text><text x="49.098" y="19.038" class="g">tasklite</text><text y="21.209" class="m">nc1</text><text x="6.012" y="21.209" class="n">2</text><text x="11.022" y="21.209" class="o">2018-07-04</text><text x="23.046" y="21.209" class="p">Fix</text><text x="27.054" y="21.209" class="p">spacing</text><text x="35.07" y="21.209" class="p">between</text><text x="43.086" y="21.209" class="p">elements</text><text x="52.104" y="21.209" class="p">in</text><text x="55.11" y="21.209" class="p">head</text><text x="60.12" y="21.209" class="p">view</text><text x="70.14" y="21.209" class="f">+</text><text x="71.142" y="21.209" class="g">tasklite</text></svg></svg></g></svg></svg>