<svg xmlns="http://www.w3.org/2000/svg" xmlns:xlink="http://www.w3.org/1999/xlink" width="840" height="1927.06"><rect width="840" height="1927.06" rx="5" ry="5" class="a"/><svg y="0%" x="0%"><circle cx="20" cy="20" r="6" fill="#ff5f58"/><circle cx="40" cy="20" r="6" fill="#ffbd2e"/><circle cx="60" cy="20" r="6" fill="#18c132"/></svg><svg height="1867.06" viewBox="0 0 80 186.706" width="800" x="15" xmlns="http://www.w3.org/2000/svg" xmlns:xlink="http://www.w3.org/1999/xlink" y="50"><style>.a{fill:#141414}.i{fill:#b5dcff}.j{fill:#dfdfdf}.k{fill:#fff;font-weight:700}.l{fill:#dfdffe}.m{fill:#ffffb6}</style><g font-size="1.67" font-family="Monaco,Consolas,Menlo,'Bitstream Vera Sans Mono','Powerline Symbols',monospace"><defs><symbol id="a"><path fill="transparent" d="M0 0h80v86H0z"/></symbol></defs><path class="a" d="M0 0h80v186.706H0z"/><svg width="80"><svg><use xlink:href="#a"/><text y="1.67" fill="#b5dcff" font-weight="700">TaskLite</text><text x="9.018" y="1.67" fill="#7c7c7c">0.1.0.0</text><text y="6.012" class="i">Task-list</text><text x="10.02" y="6.012" class="i">manager</text><text x="18.036" y="6.012" class="i">powered</text><text x="26.052" y="6.012" class="i">by</text><text x="29.058" y="6.012" class="i">Haskell</text><text x="37.074" y="6.012" class="i">and</text><text x="41.082" y="6.012" class="i">SQLite</text><text y="10.354" class="j">Usage:</text><text x="7.014" y="10.354" class="j">tasklite</text><text x="16.032" y="10.354" class="j">([COMMAND]</text><text x="27.054" y="10.354" class="j">|</text><text x="29.058" y="10.354" class="j">[COMMAND]</text><text x="39.078" y="10.354" class="j">|</text><text x="41.082" y="10.354" class="j">[COMMAND]</text><text x="51.102" y="10.354" class="j">|</text><text x="53.106" y="10.354" class="j">[COMMAND]</text><text x="63.126" y="10.354" class="j">|</text><text x="65.13" y="10.354" class="j">[COMMAND]</text><text x="75.15" y="10.354" class="j">|</text><text x="16.032" y="12.525" class="j">[COMMAND]</text><text x="26.052" y="12.525" class="j">|</text><text x="28.056" y="12.525" class="j">[COMMAND])</text><text x="15.03" y="16.867" class="k">Add</text><text x="19.038" y="16.867" class="k">an</text><text x="22.044" y="16.867" class="k">alias:</text><text x="29.058" y="16.867" class="j">`</text><text x="30.06" y="16.867" class="l">alias</text><text x="36.072" y="16.867" class="l">tl</text><text x="39.078" y="16.867" class="l">tasklite</text><text x="47.094" y="16.867" class="j">`</text><text x="6.012" y="19.038" class="k">Add</text><text x="10.02" y="19.038" class="k">a</text><text x="12.024" y="19.038" class="k">task</text><text x="17.034" y="19.038" class="k">with</text><text x="22.044" y="19.038" class="k">a</text><text x="24.048" y="19.038" class="k">tag:</text><text x="29.058" y="19.038" class="j">`</text><text x="30.06" y="19.038" class="l">tl</text><text x="33.066" y="19.038" class="l">add</text><text x="37.074" y="19.038" class="l">Buy</text><text x="41.082" y="19.038" class="l">milk</text><text x="46.092" y="19.038" class="l">+groceries</text><text x="56.112" y="19.038" class="j">`</text><text x="5.01" y="21.209" class="k">…</text><text x="7.014" y="21.209" class="k">or</text><text x="10.02" y="21.209" class="k">with</text><text x="15.03" y="21.209" class="k">the</text><text x="19.038" y="21.209" class="k">shortcut:</text><text x="29.058" y="21.209" class="j">`</text><text x="30.06" y="21.209" class="l">tl</text><text x="33.066" y="21.209" class="l">buy</text><text x="37.074" y="21.209" class="l">milk</text><text x="42.084" y="21.209" class="l">+groceries</text><text x="52.104" y="21.209" class="j">`</text><text x="2.004" y="23.38" class="k">List</text><text x="7.014" y="23.38" class="k">most</text><text x="12.024" y="23.38" class="k">important</text><text x="22.044" y="23.38" class="k">tasks:</text><text x="29.058" y="23.38" class="j">`</text><text x="30.06" y="23.38" class="l">tl</text><text x="32.064" y="23.38" class="j">`</text><text x="34.068" y="23.38" class="j">(same</text><text x="40.08" y="23.38" class="j">as</text><text x="43.086" y="23.38" class="j">`</text><text x="44.088" y="23.38" class="l">tl</text><text x="47.094" y="23.38" class="l">head</text><text x="51.102" y="23.38" class="j">`)</text><text x="16.032" y="25.551" class="k">Complete</text><text x="25.05" y="25.551" class="k">it:</text><text x="29.058" y="25.551" class="j">`</text><text x="30.06" y="25.551" class="l">tl</text><text x="33.066" y="25.551" class="l">do</text><text x="36.072" y="25.551" class="l">&lt;id&gt;</text><text x="40.08" y="25.551" class="j">`</text><text y="29.893" class="j">Available</text><text x="10.02" y="29.893" class="j">options:</text><text x="2.004" y="32.064" class="j">-h,--help</text><text x="27.054" y="32.064" class="j">Show</text><text x="32.064" y="32.064" class="j">this</text><text x="37.074" y="32.064" class="j">help</text><text x="42.084" y="32.064" class="j">text</text><text y="36.406" class="m">Basic</text><text x="6.012" y="36.406" class="m">Commands:</text><text x="2.004" y="38.577" class="j">add</text><text x="27.054" y="38.577" class="j">Add</text><text x="31.062" y="38.577" class="j">a</text><text x="33.066" y="38.577" class="j">new</text><text x="37.074" y="38.577" class="j">task</text><text x="2.004" y="40.748" class="j">log</text><text x="27.054" y="40.748" class="j">Log</text><text x="31.062" y="40.748" class="j">an</text><text x="34.068" y="40.748" class="j">already</text><text x="42.084" y="40.748" class="j">completed</text><text x="52.104" y="40.748" class="j">task</text><text x="2.004" y="42.919" class="j">do</text><text x="27.054" y="42.919" class="j">Mark</text><text x="32.064" y="42.919" class="j">a</text><text x="34.068" y="42.919" class="j">task</text><text x="39.078" y="42.919" class="j">as</text><text x="42.084" y="42.919" class="j">done</text><text x="2.004" y="45.09" class="j">end</text><text x="27.054" y="45.09" class="j">Mark</text><text x="32.064" y="45.09" class="j">a</text><text x="34.068" y="45.09" class="j">task</text><text x="39.078" y="45.09" class="j">as</text><text x="42.084" y="45.09" class="j">obsolete</text><text x="2.004" y="47.261" class="j">delete</text><text x="27.054" y="47.261" class="j">Delete</text><text x="34.068" y="47.261" class="j">a</text><text x="36.072" y="47.261" class="j">task</text><text x="41.082" y="47.261" class="j">from</text><text x="46.092" y="47.261" class="j">the</text><text x="50.1" y="47.261" class="j">database</text><text x="59.118" y="47.261" class="j">(Attention:</text><text x="27.054" y="49.432" class="j">Irreversible)</text><text x="2.004" y="51.603" class="j">boost</text><text x="27.054" y="51.603" class="j">Increase</text><text x="36.072" y="51.603" class="j">priority</text><text x="45.09" y="51.603" class="j">of</text><text x="48.096" y="51.603" class="j">specified</text><text x="58.116" y="51.603" class="j">tasks</text><text x="64.128" y="51.603" class="j">by</text><text x="67.134" y="51.603" class="j">1</text><text x="2.004" y="53.774" class="j">hush</text><text x="27.054" y="53.774" class="j">Decrease</text><text x="36.072" y="53.774" class="j">priority</text><text x="45.09" y="53.774" class="j">of</text><text x="48.096" y="53.774" class="j">specified</text><text x="58.116" y="53.774" class="j">tasks</text><text x="64.128" y="53.774" class="j">by</text><text x="67.134" y="53.774" class="j">1</text><text x="2.004" y="55.945" class="j">prioritize</text><text x="27.054" y="55.945" class="j">Adjust</text><text x="34.068" y="55.945" class="j">priority</text><text x="43.086" y="55.945" class="j">of</text><text x="46.092" y="55.945" class="j">specified</text><text x="56.112" y="55.945" class="j">tasks</text><text x="2.004" y="58.116" class="j">info</text><text x="27.054" y="58.116" class="j">Show</text><text x="32.064" y="58.116" class="j">detailed</text><text x="41.082" y="58.116" class="j">information</text><text x="53.106" y="58.116" class="j">and</text><text x="57.114" y="58.116" class="j">metadata</text><text x="66.132" y="58.116" class="j">of</text><text x="69.138" y="58.116" class="j">task</text><text x="2.004" y="60.287" class="j">next</text><text x="27.054" y="60.287" class="j">Show</text><text x="32.064" y="60.287" class="j">the</text><text x="36.072" y="60.287" class="j">task</text><text x="41.082" y="60.287" class="j">with</text><text x="46.092" y="60.287" class="j">the</text><text x="50.1" y="60.287" class="j">highest</text><text x="58.116" y="60.287" class="j">priority</text><text x="2.004" y="62.458" class="j">find</text><text x="27.054" y="62.458" class="j">Fuzzy</text><text x="33.066" y="62.458" class="j">search</text><text x="40.08" y="62.458" class="j">a</text><text x="42.084" y="62.458" class="j">task</text><text x="2.004" y="64.629" class="j">tag</text><text x="27.054" y="64.629" class="j">Add</text><text x="31.062" y="64.629" class="j">a</text><text x="33.066" y="64.629" class="j">tag</text><text x="37.074" y="64.629" class="j">to</text><text x="40.08" y="64.629" class="j">specified</text><text x="50.1" y="64.629" class="j">tasks</text><text x="2.004" y="66.8" class="j">due</text><text x="27.054" y="66.8" class="j">Set</text><text x="31.062" y="66.8" class="j">due</text><text x="35.07" y="66.8" class="j">UTC</text><text x="39.078" y="66.8" class="j">of</text><text x="42.084" y="66.8" class="j">specified</text><text x="52.104" y="66.8" class="j">tasks</text><text y="71.142" class="m">Shortcuts</text><text x="10.02" y="71.142" class="m">to</text><text x="13.026" y="71.142" class="m">Add</text><text x="17.034" y="71.142" class="m">a</text><text x="19.038" y="71.142" class="m">Task:</text><text x="2.004" y="73.313" class="j">write</text><text x="27.054" y="73.313" class="j">Write</text><text x="33.066" y="73.313" class="j">a</text><text x="35.07" y="73.313" class="j">message</text><text x="43.086" y="73.313" class="j">or</text><text x="46.092" y="73.313" class="j">a</text><text x="48.096" y="73.313" class="j">post</text><text x="2.004" y="75.484" class="j">read</text><text x="27.054" y="75.484" class="j">Read</text><text x="32.064" y="75.484" class="j">the</text><text x="36.072" y="75.484" class="j">specified</text><text x="46.092" y="75.484" class="j">URL</text><text x="2.004" y="77.655" class="j">watch</text><text x="27.054" y="77.655" class="j">Watch</text><text x="33.066" y="77.655" class="j">a</text><text x="35.07" y="77.655" class="j">movie</text><text x="41.082" y="77.655" class="j">or</text><text x="44.088" y="77.655" class="j">a</text><text x="46.092" y="77.655" class="j">video</text><text x="2.004" y="79.826" class="j">listen</text><text x="27.054" y="79.826" class="j">Listen</text><text x="34.068" y="79.826" class="j">to</text><text x="37.074" y="79.826" class="j">a</text><text x="39.078" y="79.826" class="j">song</text><text x="44.088" y="79.826" class="j">or</text><text x="47.094" y="79.826" class="j">podcast</text><text x="2.004" y="81.997" class="j">buy</text><text x="27.054" y="81.997" class="j">Buy</text><text x="31.062" y="81.997" class="j">something</text><text x="2.004" y="84.168" class="j">sell</text><text x="27.054" y="84.168" class="j">Sell</text><text x="32.064" y="84.168" class="j">something</text><text x="2.004" y="86.339" class="j">ship</text><text x="27.054" y="86.339" class="j">Ship</text><text x="32.064" y="86.339" class="j">an</text><text x="35.07" y="86.339" class="j">item</text><text x="40.08" y="86.339" class="j">to</text><text x="43.086" y="86.339" class="j">someone</text><text y="90.681" class="m">List</text><text x="5.01" y="90.681" class="m">Commands:</text><text x="2.004" y="92.852" class="j">head</text><text x="27.054" y="92.852" class="j">List</text><text x="32.064" y="92.852" class="j">20</text><text x="35.07" y="92.852" class="j">most</text><text x="40.08" y="92.852" class="j">important</text><text x="50.1" y="92.852" class="j">open</text><text x="55.11" y="92.852" class="j">tasks</text><text x="61.122" y="92.852" class="j">by</text><text x="64.128" y="92.852" class="j">priority</text><text x="73.146" y="92.852" class="j">desc</text><text x="2.004" y="95.023" class="j">all</text><text x="27.054" y="95.023" class="j">List</text><text x="32.064" y="95.023" class="j">all</text><text x="36.072" y="95.023" class="j">tasks</text><text x="42.084" y="95.023" class="j">by</text><text x="45.09" y="95.023" class="j">priority</text><text x="2.004" y="97.194" class="j">open</text><text x="27.054" y="97.194" class="j">List</text><text x="32.064" y="97.194" class="j">all</text><text x="36.072" y="97.194" class="j">open</text><text x="41.082" y="97.194" class="j">tasks</text><text x="47.094" y="97.194" class="j">by</text><text x="50.1" y="97.194" class="j">creation</text><text x="59.118" y="97.194" class="j">UTC</text><text x="63.126" y="97.194" class="j">desc</text><text x="2.004" y="99.365" class="j">overdue</text><text x="27.054" y="99.365" class="j">List</text><text x="32.064" y="99.365" class="j">all</text><text x="36.072" y="99.365" class="j">overdue</text><text x="44.088" y="99.365" class="j">tasks</text><text x="50.1" y="99.365" class="j">by</text><text x="53.106" y="99.365" class="j">priority</text><text x="62.124" y="99.365" class="j">desc</text><text x="2.004" y="101.536" class="j">new</text><text x="27.054" y="101.536" class="j">List</text><text x="32.064" y="101.536" class="j">20</text><text x="35.07" y="101.536" class="j">newest</text><text x="42.084" y="101.536" class="j">open</text><text x="47.094" y="101.536" class="j">tasks</text><text x="53.106" y="101.536" class="j">by</text><text x="56.112" y="101.536" class="j">creation</text><text x="65.13" y="101.536" class="j">UTC</text><text x="69.138" y="101.536" class="j">desc</text><text x="2.004" y="103.707" class="j">waiting</text><text x="27.054" y="103.707" class="j">List</text><text x="32.064" y="103.707" class="j">all</text><text x="36.072" y="103.707" class="j">waiting</text><text x="44.088" y="103.707" class="j">tasks</text><text x="50.1" y="103.707" class="j">by</text><text x="53.106" y="103.707" class="j">priority</text><text x="2.004" y="105.878" class="j">done</text><text x="27.054" y="105.878" class="j">List</text><text x="32.064" y="105.878" class="j">20</text><text x="35.07" y="105.878" class="j">done</text><text x="40.08" y="105.878" class="j">tasks</text><text x="46.092" y="105.878" class="j">by</text><text x="49.098" y="105.878" class="j">closing</text><text x="57.114" y="105.878" class="j">UTC</text><text x="61.122" y="105.878" class="j">desc</text><text x="2.004" y="108.049" class="j">obsolete</text><text x="27.054" y="108.049" class="j">List</text><text x="32.064" y="108.049" class="j">all</text><text x="36.072" y="108.049" class="j">obsolete</text><text x="45.09" y="108.049" class="j">tasks</text><text x="51.102" y="108.049" class="j">by</text><text x="54.108" y="108.049" class="j">closing</text><text x="62.124" y="108.049" class="j">UTC</text><text x="2.004" y="110.22" class="j">notag</text><text x="27.054" y="110.22" class="j">List</text><text x="32.064" y="110.22" class="j">tasks</text><text x="38.076" y="110.22" class="j">without</text><text x="46.092" y="110.22" class="j">any</text><text x="50.1" y="110.22" class="j">tags</text><text x="2.004" y="112.391" class="j">withtag</text><text x="27.054" y="112.391" class="j">List</text><text x="32.064" y="112.391" class="j">tasks</text><text x="38.076" y="112.391" class="j">which</text><text x="44.088" y="112.391" class="j">have</text><text x="49.098" y="112.391" class="j">all</text><text x="53.106" y="112.391" class="j">of</text><text x="56.112" y="112.391" class="j">the</text><text x="60.12" y="112.391" class="j">specified</text><text x="70.14" y="112.391" class="j">tags</text><text x="2.004" y="114.562" class="j">query</text><text x="27.054" y="114.562" class="j">Run</text><text x="31.062" y="114.562" class="j">&quot;select</text><text x="39.078" y="114.562" class="j">*</text><text x="41.082" y="114.562" class="j">from</text><text x="46.092" y="114.562" class="j">tasks</text><text x="52.104" y="114.562" class="j">where</text><text x="58.116" y="114.562" class="j">QUERY&quot;</text><text x="65.13" y="114.562" class="j">on</text><text x="68.136" y="114.562" class="j">the</text><text x="72.144" y="114.562" class="j">database</text><text y="118.904" class="m">Visualizations:</text><text x="2.004" y="121.075" class="j">tags</text><text x="27.054" y="121.075" class="j">List</text><text x="32.064" y="121.075" class="j">all</text><text x="36.072" y="121.075" class="j">used</text><text x="41.082" y="121.075" class="j">tags</text><text x="46.092" y="121.075" class="j">and</text><text x="50.1" y="121.075" class="j">their</text><text x="56.112" y="121.075" class="j">progress</text><text x="65.13" y="121.075" class="j">summary</text><text y="125.417" class="m">I/O</text><text x="4.008" y="125.417" class="m">Commands:</text><text x="2.004" y="127.588" class="j">import</text><text x="27.054" y="127.588" class="j">Import</text><text x="34.068" y="127.588" class="j">one</text><text x="38.076" y="127.588" class="j">JSON</text><text x="43.086" y="127.588" class="j">task</text><text x="48.096" y="127.588" class="j">from</text><text x="53.106" y="127.588" class="j">stdin</text><text x="2.004" y="129.759" class="j">csv</text><text x="27.054" y="129.759" class="j">Show</text><text x="32.064" y="129.759" class="j">tasks</text><text x="38.076" y="129.759" class="j">in</text><text x="41.082" y="129.759" class="j">CSV</text><text x="45.09" y="129.759" class="j">format</text><text x="2.004" y="131.93" class="j">runsql</text><text x="27.054" y="131.93" class="j">Run</text><text x="31.062" y="131.93" class="j">any</text><text x="35.07" y="131.93" class="j">SQL</text><text x="39.078" y="131.93" class="j">query</text><text x="45.09" y="131.93" class="j">and</text><text x="49.098" y="131.93" class="j">show</text><text x="54.108" y="131.93" class="j">result</text><text x="61.122" y="131.93" class="j">as</text><text x="64.128" y="131.93" class="j">CSV</text><text x="2.004" y="134.101" class="j">ndjson</text><text x="27.054" y="134.101" class="j">Show</text><text x="32.064" y="134.101" class="j">tasks</text><text x="38.076" y="134.101" class="j">in</text><text x="41.082" y="134.101" class="j">NDJSON</text><text x="48.096" y="134.101" class="j">format</text><text x="2.004" y="136.272" class="j">sql</text><text x="27.054" y="136.272" class="j">Show</text><text x="32.064" y="136.272" class="j">SQL</text><text x="36.072" y="136.272" class="j">commands</text><text x="45.09" y="136.272" class="j">to</text><text x="48.096" y="136.272" class="j">create</text><text x="55.11" y="136.272" class="j">and</text><text x="59.118" y="136.272" class="j">populate</text><text x="68.136" y="136.272" class="j">database</text><text x="2.004" y="138.443" class="j">backup</text><text x="27.054" y="138.443" class="j">Create</text><text x="34.068" y="138.443" class="j">a</text><text x="36.072" y="138.443" class="j">backup</text><text x="43.086" y="138.443" class="j">of</text><text x="46.092" y="138.443" class="j">the</text><text x="50.1" y="138.443" class="j">tasks</text><text x="56.112" y="138.443" class="j">database</text><text x="65.13" y="138.443" class="j">at</text><text x="27.054" y="140.614" class="j">~/tasklite/backups</text><text y="144.956" class="m">Advanced</text><text x="9.018" y="144.956" class="m">Commands:</text><text x="2.004" y="147.127" class="j">count</text><text x="27.054" y="147.127" class="j">Output</text><text x="34.068" y="147.127" class="j">total</text><text x="40.08" y="147.127" class="j">number</text><text x="47.094" y="147.127" class="j">of</text><text x="50.1" y="147.127" class="j">tasks</text><text x="2.004" y="149.298" class="j">version</text><text x="27.054" y="149.298" class="j">Display</text><text x="35.07" y="149.298" class="j">version</text><text x="2.004" y="151.469" class="j">help</text><text x="27.054" y="151.469" class="j">Display</text><text x="35.07" y="151.469" class="j">current</text><text x="43.086" y="151.469" class="j">help</text><text x="48.096" y="151.469" class="j">page</text><text y="155.811" class="m">Aliases:</text><text x="2.004" y="157.982" class="j">close</text><text x="27.054" y="157.982" class="j">-&gt;</text><text x="30.06" y="157.982" class="j">end</text><text x="2.004" y="160.153" class="j">decrease</text><text x="27.054" y="160.153" class="j">-&gt;</text><text x="30.06" y="160.153" class="j">hush</text><text x="2.004" y="162.324" class="j">finish</text><text x="27.054" y="162.324" class="j">-&gt;</text><text x="30.06" y="162.324" class="j">do</text><text x="2.004" y="164.495" class="j">fix</text><text x="27.054" y="164.495" class="j">-&gt;</text><text x="30.06" y="164.495" class="j">do</text><text x="2.004" y="166.666" class="j">implement</text><text x="27.054" y="166.666" class="j">-&gt;</text><text x="30.06" y="166.666" class="j">do</text><text x="2.004" y="168.837" class="j">inbox</text><text x="27.054" y="168.837" class="j">-&gt;</text><text x="30.06" y="168.837" class="j">notag</text><text x="2.004" y="171.008" class="j">increase</text><text x="27.054" y="171.008" class="j">-&gt;</text><text x="30.06" y="171.008" class="j">boost</text><text x="2.004" y="173.179" class="j">remove</text><text x="27.054" y="173.179" class="j">-&gt;</text><text x="30.06" y="173.179" class="j">delete</text><text x="2.004" y="175.35" class="j">rm</text><text x="27.054" y="175.35" class="j">-&gt;</text><text x="30.06" y="175.35" class="j">delete</text><text x="2.004" y="177.521" class="j">stop</text><text x="27.054" y="177.521" class="j">-&gt;</text><text x="30.06" y="177.521" class="j">end</text><text y="181.863" class="j">Version</text><text x="8.016" y="181.863" class="j">0.1.0.0,</text><text x="17.034" y="181.863" class="j">developed</text><text x="27.054" y="181.863" class="j">by</text><text x="30.06" y="181.863" class="j">&lt;adriansieber.com&gt;</text><text x="49.098" y="181.863" class="j">at</text><text x="52.104" y="181.863" class="j">&lt;feram.io&gt;</text></svg></svg></g></svg></svg>